<svg xmlns="http://www.w3.org/2000/svg" version="1.1" xmlns:xlink="http://www.w3.org/1999/xlink" xmlns:svgjs="http://svgjs.dev/svgjs" width="1500" height="1205" viewBox="0 0 1500 1205"><g transform="matrix(1,0,0,1,0,0.3984580210021704)"><svg viewBox="0 0 448 360" data-background-color="#6432c9" preserveAspectRatio="xMidYMid meet" height="1205" width="1500" xmlns="http://www.w3.org/2000/svg" xmlns:xlink="http://www.w3.org/1999/xlink"><g id="tight-bounds" transform="matrix(1,0,0,1,0,-0.11904140046539169)"><svg viewBox="0 0 448 360" height="360" width="448"><g><svg></svg></g><g><svg viewBox="0 0 448 360" height="360" width="448"><g><path transform="translate(36.9151,-7.08178) scale(0.00624,0.00624)" d="M25167 8301c221 0 400 179 400 400 0 221-179 400-400 400h-3824l-2753 2753c-156 156-409 156-566 0-156-156-156-409 0-566l2188-2188h-6475c-1847 0-3071 431-3819 1301-760 885-1068 2254-1068 4110 0 11 0 22-1 33l34 5884 2356-2356c156-156 409-156 566 0 156 156 156 409 0 566l-2915 2915c33 5746 31 11443-2 17189 4087 4041 8117 8068 12157 12154h4070c221 0 400 179 400 400 0 221-179 400-400 400h-3279l4160 4208 1-1c1313 1313 2498 2062 3660 2151 1146 87 2316-474 3622-1779l4579-4579h-3323c-221 0-400-179-400-400 0-221 179-400 400-400h4123l2666-2666c156-156 409-156 566 0 156 156 156 409 0 566l-2101 2101h6475c1847 0 3071-431 3819-1301 760-885 1068-2254 1068-4110h2l-34-5917-2568 2568c-156 156-409 156-566 0-156-156-156-409 0-566l3127-3127c-33-5746-31-11443 2-17189-4087-4041-8117-8068-12157-12154h-4193c-221 0-400-179-400-400 0-221 179-400 400-400h3402l-4141-4189c-7-6-13-12-20-18-1313-1313-2498-2062-3660-2151-1146-87-2316 474-3622 1779l-4579 4579h3024zM13737 8301h7275l5144-5144c1483-1483 2856-2116 4247-2010 1374 104 2719 934 4167 2382 8 8 15 15 22 23l4695 4749h6977c2096 0 3515 524 4425 1583 898 1045 1261 2582 1261 4629 0 13-1 25-2 37l-36 6373 4559 4508 1-1c1448 1448 2278 2792 2382 4167 106 1391-528 2764-2010 4247l-4934 4934 38 6710h2c0 2047-364 3584-1261 4629-910 1059-2329 1583-4425 1583h-7275l-5144 5144c-1483 1483-2856 2116-4247 2010-1374-104-2719-934-4167-2382l1-1-4718-4772h-6977c-2096 0-3515-524-4425-1583-898-1045-1261-2582-1261-4629h2l37-6410-4537-4485c-8-7-16-14-23-22-1448-1448-2278-2792-2382-4167-106-1391 528-2764 2010-4247l4934-4934-38-6672c-1-12-2-25-2-37 0-2047 364-3584 1261-4629 910-1059 2329-1583 4425-1583zM8141 30000l-44-7653-4374 4374c-1305 1305-1866 2476-1779 3622 88 1162 838 2348 2151 3660 6 6 13 13 18 20l3983 3937 45-7961zM8882 39860l-32 5627h2c0 1857 308 3226 1068 4110 748 871 1972 1301 3819 1301h6186l-5380-5442-5662-5597zM46264 9101h-6186l5380 5442 5662 5597 32-5594c-1-11-1-22-1-33 0-1857-308-3226-1068-4110-748-871-1972-1301-3819-1301zM51906 22039l-45 7961 44 7653 4374-4374c1305-1305 1866-2476 1779-3622-88-1163-838-2348-2151-3660l1-1-4002-3956z" fill="#e1cdff" fill-rule="nonzero" stroke="none" stroke-width="1" stroke-linecap="butt" stroke-linejoin="miter" stroke-miterlimit="10" stroke-dasharray="" stroke-dashoffset="0" font-family="none" font-weight="none" font-size="none" text-anchor="none" style="mix-blend-mode: normal" data-fill-palette-color="tertiary"></path></g><g transform="matrix(1,0,0,1,112,127.95770377626798)"><svg viewBox="0 0 224 104.08459244746405" height="104.08459244746405" width="224"><g><svg viewBox="0 0 224 104.08459244746405" height="104.08459244746405" width="224"><g transform="matrix(1,0,0,1,0,72.23121908674356)"><svg viewBox="0 0 224 31.85337336072049" height="31.85337336072049" width="224"><g id="textblocktransform"><svg viewBox="0 0 224 31.85337336072049" height="31.85337336072049" width="224" id="textblock"><g><svg viewBox="0 0 224 31.85337336072049" height="31.85337336072049" width="224"><g transform="matrix(1,0,0,1,0,0)"><svg width="224" viewBox="2.27 -42.19 309.01 43.949999999999996" height="31.85337336072049" data-palette-color="#e1cdff"><path d="M15.94-17.38L15.94-19.14 26.15-19.14Q28.66-19.14 30.41-20.84 32.15-22.53 32.15-25.63L32.15-25.63Q32.15-27.95 30.32-29.8 28.49-31.64 26.15-31.64L26.15-31.64 11.06-31.64 11.06 0 9.3 0 9.3-33.4 26.15-33.4Q29.22-33.4 31.57-31.03 33.91-28.66 33.91-25.63L33.91-25.63Q33.91-21.9 31.64-19.64 29.37-17.38 26.15-17.38L26.15-17.38 15.94-17.38ZM15.94-13.87L15.94-15.63 26.15-15.63Q28.69-15.63 30.85-16.86 33.01-18.09 34.34-20.41 35.67-22.73 35.67-25.63L35.67-25.63Q35.67-29.39 32.8-32.28 29.93-35.16 26.15-35.16L26.15-35.16 7.54-35.16 7.54 0 5.79 0 5.79-36.91 26.15-36.91Q29.1-36.91 31.71-35.35 34.33-33.79 35.88-31.18 37.43-28.56 37.43-25.63L37.43-25.63Q37.43-22.31 35.86-19.59 34.3-16.87 31.73-15.37 29.15-13.87 26.15-13.87L26.15-13.87 15.94-13.87ZM15.94-10.35L15.94-12.11 26.15-12.11Q28.76-12.11 31.15-13.15 33.54-14.18 35.31-15.95 37.08-17.72 38.13-20.25 39.18-22.78 39.18-25.63L39.18-25.63Q39.18-29.05 37.4-32.07 35.62-35.08 32.6-36.88 29.59-38.67 26.15-38.67L26.15-38.67 4.03-38.67 4.03 0 2.27 0 2.27-40.43 26.15-40.43Q30.05-40.43 33.47-38.39 36.89-36.35 38.92-32.93 40.94-29.52 40.94-25.63L40.94-25.63Q40.94-22.17 39.75-19.25 38.55-16.33 36.52-14.4 34.5-12.48 31.81-11.41 29.13-10.35 26.15-10.35L26.15-10.35 15.94-10.35ZM14.58-28.13L14.58 0 12.82 0 12.82-29.88 26.15-29.88Q27.88-29.88 29.14-28.61 30.4-27.34 30.4-25.63L30.4-25.63Q30.4-20.9 26.15-20.9L26.15-20.9 15.94-20.9 15.94-22.66 26.15-22.66Q27.32-22.66 27.98-23.32 28.64-23.97 28.64-25.63L28.64-25.63Q28.64-26.71 27.92-27.42 27.2-28.13 26.15-28.13L26.15-28.13 14.58-28.13ZM79.98 0L79.98-35.16 81.74-35.16 81.74 0 79.98 0ZM44.8 0L44.8-35.16 46.56-35.16 46.56 0 44.8 0ZM76.46 0L76.46-35.16 78.22-35.16 78.22 0 76.46 0ZM72.95 0L72.95-35.16 74.7-35.16 74.7 0 72.95 0ZM69.43-22.85L69.43-35.16 71.19-35.16 71.19 0 69.43 0 69.43-14.06 57.1-14.06 57.1 0 55.34 0 55.34-35.16 57.1-35.16 57.1-22.85 69.43-22.85ZM51.83 0L51.83-35.16 53.59-35.16 53.59 0 51.83 0ZM48.31 0L48.31-35.16 50.07-35.16 50.07 0 48.31 0ZM57.1-15.82L69.43-15.82 69.43-17.58 57.1-17.58 57.1-15.82ZM57.1-19.34L69.43-19.34 69.43-21.09 57.1-21.09 57.1-19.34ZM99.97-14.79L99.97-16.55 107.42-16.55Q109.61-16.55 111.15-17.87 112.69-19.19 112.69-21.58L112.69-21.58Q112.69-23.44 111.08-24.9 109.47-26.37 107.42-26.37L107.42-26.37 95.11-26.37 95.11 0 93.35 0 93.35-28.13 107.42-28.13Q110.22-28.13 112.34-26.15 114.45-24.17 114.45-21.58L114.45-21.58Q114.45-18.48 112.4-16.64 110.35-14.79 107.42-14.79L107.42-14.79 99.97-14.79ZM99.97-11.28L99.97-13.04 107.42-13.04Q111.03-13.04 113.62-15.43 116.21-17.82 116.21-21.58L116.21-21.58Q116.21-24.88 113.57-27.38 110.93-29.88 107.42-29.88L107.42-29.88 91.6-29.88 91.6 0 89.84 0 89.84-31.64 107.42-31.64Q111.66-31.64 114.81-28.63 117.96-25.61 117.96-21.58L117.96-21.58Q117.96-17.19 114.85-14.23 111.74-11.28 107.42-11.28L107.42-11.28 99.97-11.28ZM99.97-7.76L99.97-9.52 107.42-9.52Q110.71-9.52 113.53-11.08 116.35-12.65 118.04-15.43 119.72-18.21 119.72-21.58L119.72-21.58Q119.72-24.68 118.05-27.42 116.38-30.15 113.53-31.77 110.69-33.4 107.42-33.4L107.42-33.4 88.08-33.4 88.08 0 86.32 0 86.32-35.16 107.42-35.16Q110.2-35.16 112.8-34.06 115.4-32.96 117.3-31.12 119.21-29.27 120.34-26.77 121.48-24.27 121.48-21.58L121.48-21.58Q121.48-18.43 120.36-15.8 119.23-13.16 117.3-11.41 115.38-9.67 112.82-8.72 110.27-7.76 107.42-7.76L107.42-7.76 99.97-7.76ZM98.63-22.85L98.63 0 96.87 0 96.87-24.61 107.42-24.61Q108.86-24.61 109.89-23.72 110.93-22.83 110.93-21.58L110.93-21.58Q110.93-18.31 107.42-18.31L107.42-18.31 99.97-18.31 99.97-20.07 107.42-20.07Q109.17-20.07 109.17-21.58L109.17-21.58Q109.17-22.12 108.66-22.49 108.15-22.85 107.42-22.85L107.42-22.85 98.63-22.85ZM141.74-24.61L141.74-24.61 138.79-24.61Q136.91-24.61 136.08-25.57 135.25-26.54 135.25-28.13L135.25-28.13Q135.25-31.64 140.5-31.64L140.5-31.64Q145.43-31.64 147.92-30.18L147.92-30.18 146.5-29.1Q144.79-29.88 140.5-29.88L140.5-29.88Q138.4-29.88 137.68-29.42 136.96-28.96 136.96-28.13 136.96-27.29 137.35-26.83 137.74-26.37 138.79-26.37L138.79-26.37 141.81-26.37Q145.11-26.37 147.76-25.24 150.41-24.12 152.12-22.18 153.83-20.24 154.73-17.71 155.63-15.19 155.63-12.3L155.63-12.3Q155.63-9.96 154.97-7.86 154.31-5.76 152.98-4 151.65-2.25 149.78-0.96 147.92 0.32 145.34 1.04 142.77 1.76 139.76 1.76L139.76 1.76Q135.05 1.76 130.94 0.33 126.82-1.1 124.09-3.66L124.09-3.66 125.51-4.71Q128-2.47 131.74-1.23 135.49 0 139.76 0L139.76 0Q143.11 0 145.81-0.96 148.5-1.93 150.25-3.61 151.99-5.3 152.93-7.52 153.87-9.74 153.87-12.3L153.87-12.3Q153.87-15.7 152.51-18.44 151.14-21.19 148.34-22.9 145.55-24.61 141.74-24.61ZM138.79-22.85L138.79-22.85 141.57-22.85Q146.53-22.85 149.32-19.82 152.12-16.8 152.12-12.3L152.12-12.3Q152.12-7.74 148.87-4.75 145.62-1.76 139.76-1.76L139.76-1.76Q135.86-1.76 132.46-2.83 129.07-3.91 126.82-5.86L126.82-5.86 128.19-6.96Q130.19-5.32 133.23-4.42 136.27-3.52 139.76-3.52L139.76-3.52Q144.91-3.52 147.64-5.98 150.36-8.45 150.36-12.3L150.36-12.3Q150.36-16.11 148.08-18.6 145.79-21.09 141.55-21.09L141.55-21.09 138.79-21.09Q135.22-21.09 133.44-23.05 131.66-25 131.66-28.13 131.66-31.25 133.87-33.2 136.08-35.16 140.5-35.16L140.5-35.16Q143.6-35.16 146.26-34.44 148.92-33.72 150.65-32.37L150.65-32.37 149.26-31.3Q146.21-33.4 140.5-33.4L140.5-33.4Q136.81-33.4 135.11-31.95 133.42-30.49 133.42-28.13L133.42-28.13Q133.42-25.73 134.67-24.29 135.93-22.85 138.79-22.85ZM138.79-19.34L138.79-19.34 141.47-19.34Q145.04-19.34 146.82-17.36 148.6-15.38 148.6-12.3L148.6-12.3Q148.6-9.18 146.39-7.23 144.18-5.27 139.76-5.27L139.76-5.27Q136.66-5.27 133.99-5.99 131.32-6.71 129.58-8.06L129.58-8.06 130.97-9.13Q134.03-7.03 139.76-7.03L139.76-7.03Q143.45-7.03 145.15-8.48 146.84-9.94 146.84-12.3 146.84-14.67 145.57-16.13 144.3-17.58 141.45-17.58L141.45-17.58 138.79-17.58Q133.78-17.58 130.96-20.57 128.14-23.56 128.14-28.13 128.14-32.69 131.39-35.68 134.64-38.67 140.5-38.67L140.5-38.67Q144.4-38.67 147.78-37.6 151.16-36.52 153.41-34.57L153.41-34.57 152.04-33.47Q150.04-35.11 147.01-36.01 143.99-36.91 140.5-36.91L140.5-36.91Q135.34-36.91 132.62-34.45 129.9-31.98 129.9-28.13L129.9-28.13Q129.9-24.29 132.19-21.81 134.49-19.34 138.79-19.34ZM138.79-15.82L138.79-15.82 141.47-15.82Q143.35-15.82 144.18-14.84 145.01-13.87 145.01-12.3L145.01-12.3Q145.01-8.79 139.76-8.79L139.76-8.79Q134.81-8.79 132.32-10.25L132.32-10.25 133.73-11.33Q135.44-10.55 139.76-10.55L139.76-10.55Q141.86-10.55 142.58-11.01 143.3-11.47 143.3-12.3L143.3-12.3Q143.3-13.11 142.9-13.59 142.5-14.06 141.42-14.06L141.42-14.06 138.79-14.06Q135.42-14.06 132.7-15.16 129.97-16.26 128.23-18.19 126.48-20.12 125.55-22.66 124.63-25.2 124.63-28.13L124.63-28.13Q124.63-30.47 125.29-32.57 125.94-34.67 127.28-36.43 128.61-38.18 130.47-39.47 132.34-40.75 134.92-41.47 137.49-42.19 140.5-42.19L140.5-42.19Q145.21-42.19 149.31-40.76 153.41-39.33 156.14-36.77L156.14-36.77 154.73-35.72Q152.24-37.96 148.5-39.2 144.77-40.43 140.5-40.43L140.5-40.43Q137.15-40.43 134.45-39.47 131.76-38.5 130.01-36.82 128.26-35.13 127.32-32.91 126.38-30.69 126.38-28.13L126.38-28.13Q126.38-24.68 127.78-21.92 129.17-19.17 132.02-17.49 134.88-15.82 138.79-15.82ZM159.51 0L159.51-35.16 161.27-35.16 161.27 0 159.51 0ZM170.06 0L170.06-35.16 171.82-35.16 171.82-8.79 184.78-8.79 184.78-7.03 171.82-7.03 171.82-5.27 184.78-5.27 184.78-3.52 171.82-3.52 171.82-1.76 184.78-1.76 184.78 0 170.06 0ZM166.54 0L166.54-35.16 168.3-35.16 168.3 0 166.54 0ZM163.03 0L163.03-35.16 164.78-35.16 164.78 0 163.03 0ZM199.21 0L199.21-35.16 200.96-35.16 200.96 0 199.21 0ZM195.69 0L195.69-35.16 197.45-35.16 197.45 0 195.69 0ZM192.18 0L192.18-35.16 193.93-35.16 193.93 0 192.18 0ZM188.66 0L188.66-35.16 190.42-35.16 190.42 0 188.66 0ZM225.84-10.55L216.1-10.55 216.1-24.61Q216.1-24.61 225.84-24.61L225.84-24.61Q228.55-24.61 230.49-22.56 232.43-20.51 232.43-17.63L232.43-17.63Q232.43-14.65 230.5-12.6 228.57-10.55 225.84-10.55L225.84-10.55ZM217.86-22.85L217.86-12.3 225.84-12.3Q227.82-12.3 229.22-13.84 230.62-15.38 230.62-17.63L230.62-17.63Q230.62-19.78 229.22-21.31 227.82-22.85 225.84-22.85L225.84-22.85 217.86-22.85ZM214.34-26.37L214.34-8.79 225.84-8.79Q229.31-8.79 231.77-11.36 234.24-13.94 234.24-17.63L234.24-17.63Q234.24-21.24 231.76-23.8 229.28-26.37 225.84-26.37L225.84-26.37 214.34-26.37ZM225.84-7.03L212.58-7.03 212.58-28.13 225.84-28.13Q230.01-28.13 233.03-25.04 236.04-21.95 236.04-17.63L236.04-17.63Q236.04-13.21 233.04-10.12 230.04-7.03 225.84-7.03L225.84-7.03ZM210.82-29.88L210.82-5.27 225.84-5.27Q229.06-5.27 231.82-6.91 234.58-8.54 236.22-11.4 237.85-14.26 237.85-17.63L237.85-17.63Q237.85-20.92 236.22-23.75 234.58-26.59 231.81-28.23 229.04-29.88 225.84-29.88L225.84-29.88 210.82-29.88ZM225.84-3.52L209.07-3.52 209.07-31.64 225.84-31.64Q229.53-31.64 232.71-29.76 235.9-27.88 237.78-24.65 239.66-21.41 239.66-17.63L239.66-17.63Q239.66-13.79 237.78-10.53 235.9-7.28 232.71-5.4 229.53-3.52 225.84-3.52L225.84-3.52ZM207.31-33.4L207.31-1.76 225.84-1.76Q230.01-1.76 233.6-3.87 237.19-5.98 239.33-9.64 241.46-13.31 241.46-17.63L241.46-17.63Q241.46-21.88 239.33-25.52 237.19-29.17 233.59-31.29 229.99-33.4 225.84-33.4L225.84-33.4 207.31-33.4ZM225.84 0L225.84 0 205.55 0 205.55-35.16 225.84-35.16Q230.48-35.16 234.49-32.8 238.51-30.44 240.89-26.4 243.27-22.36 243.27-17.63L243.27-17.63Q243.27-14.04 241.87-10.77 240.46-7.5 238.11-5.14 235.75-2.78 232.53-1.39 229.31 0 225.84 0ZM255.99-35.16L255.99 0 254.23 0 254.23-35.16 255.99-35.16ZM252.47-35.16L252.47 0 250.71 0 250.71-35.16 252.47-35.16ZM248.96-35.16L248.96 0 247.2 0 247.2-35.16 248.96-35.16ZM259.5-13.21L259.5-8.79 276.33-8.79 276.33-7.03 259.5-7.03 259.5-5.27 276.33-5.27 276.33-3.52 259.5-3.52 259.5-1.76 276.33-1.76 276.33 0 257.75 0 257.75-35.16 276.33-35.16 276.33-33.4 259.5-33.4 259.5-31.64 276.33-31.64 276.33-29.88 259.5-29.88 259.5-28.13 276.33-28.13 276.33-26.37 259.5-26.37 259.5-22 275.35-22 275.35-20.24 259.5-20.24 259.5-18.48 275.35-18.48 275.35-16.72 259.5-16.72 259.5-14.97 275.35-14.97 275.35-13.21 259.5-13.21ZM296.71-16.72L296.71-16.72 293.93-16.72Q288.8-16.72 286.04-18.81 283.28-20.9 283.28-24.56L283.28-24.56Q283.28-27.98 286.53-30.26 289.77-32.54 295.63-32.54L295.63-32.54Q299.54-32.54 302.92-31.47 306.3-30.4 308.55-28.44L308.55-28.44 307.18-27.34Q305.18-28.98 302.15-29.88 299.13-30.79 295.63-30.79L295.63-30.79Q290.48-30.79 287.76-29.03 285.04-27.27 285.04-24.56L285.04-24.56Q285.04-21.63 287.27-20.06 289.51-18.48 293.93-18.48L293.93-18.48 296.61-18.48Q301.81-18.48 304.58-16.39 307.35-14.31 307.35-10.64L307.35-10.64Q307.35-7.23 304.11-4.94 300.86-2.66 295-2.66L295-2.66Q291.09-2.66 287.71-3.74 284.33-4.81 282.08-6.76L282.08-6.76 283.45-7.86Q285.45-6.23 288.48-5.32 291.51-4.42 295-4.42L295-4.42Q300.15-4.42 302.87-6.18 305.6-7.93 305.6-10.64L305.6-10.64Q305.6-13.57 303.36-15.15 301.13-16.72 296.71-16.72ZM296.71-13.21L296.71-13.21 293.93-13.21Q287.14-13.21 283.45-16.3 279.77-19.38 279.77-24.56L279.77-24.56Q279.77-26.93 280.81-29 281.86-31.08 283.83-32.65 285.8-34.23 288.85-35.14 291.9-36.06 295.63-36.06L295.63-36.06Q300.35-36.06 304.45-34.63 308.55-33.2 311.28-30.64L311.28-30.64 309.87-29.59Q307.38-31.84 303.64-33.07 299.91-34.3 295.63-34.3L295.63-34.3Q289.04-34.3 285.28-31.52 281.52-28.74 281.52-24.56L281.52-24.56Q281.52-20.14 284.75-17.55 287.97-14.97 293.93-14.97L293.93-14.97 296.61-14.97Q303.84-14.97 303.84-10.64L303.84-10.64Q303.84-8.69 301.63-7.43 299.42-6.18 295-6.18L295-6.18Q291.9-6.18 289.24-6.9 286.58-7.62 284.84-8.96L284.84-8.96 286.23-10.03Q289.29-7.93 295-7.93L295-7.93Q298.66-7.93 300.37-8.69 302.08-9.45 302.08-10.64L302.08-10.64Q302.08-12.04 300.88-12.62 299.69-13.21 296.71-13.21ZM296.71-20.24L296.71-20.24 293.93-20.24Q286.8-20.24 286.8-24.56L286.8-24.56Q286.8-26.51 289.01-27.77 291.22-29.03 295.63-29.03L295.63-29.03Q298.73-29.03 301.4-28.31 304.06-27.59 305.79-26.25L305.79-26.25 304.4-25.17Q301.35-27.27 295.63-27.27L295.63-27.27Q291.97-27.27 290.26-26.51 288.55-25.76 288.55-24.56L288.55-24.56Q288.55-23.17 289.75-22.58 290.95-22 293.93-22L293.93-22 296.71-22Q303.5-22 307.18-18.91 310.87-15.82 310.87-10.64L310.87-10.64Q310.87-8.28 309.82-6.2 308.77-4.13 306.8-2.55 304.84-0.98 301.79-0.06 298.73 0.85 295 0.85L295 0.85Q290.29 0.85 286.19-0.57 282.08-2 279.35-4.57L279.35-4.57 280.77-5.62Q283.26-3.37 286.99-2.14 290.73-0.9 295-0.9L295-0.9Q301.59-0.9 305.35-3.69 309.11-6.47 309.11-10.64L309.11-10.64Q309.11-15.06 305.89-17.65 302.67-20.24 296.71-20.24Z" opacity="1" transform="matrix(1,0,0,1,0,0)" fill="#e1cdff" class="wordmark-text-0" data-fill-palette-color="primary" id="text-0"></path></svg></g></svg></g></svg></g></svg></g><g transform="matrix(1,0,0,1,79.64429894138094,0)"><svg viewBox="0 0 64.71140211723812 64.71140211723811" height="64.71140211723811" width="64.71140211723812"><g><svg></svg></g><g id="icon-0"><svg viewBox="0 0 64.71140211723812 64.71140211723811" height="64.71140211723811" width="64.71140211723812"><g><path transform="scale(0.64711,0.64711)" d="M30 100c-16.569 0-30-13.431-30-30v-40c0-16.569 13.431-30 30-30h40c16.569 0 30 13.431 30 30v40c0 16.569-13.431 30-30 30z" fill="#e1cdff" fill-rule="nonzero" stroke="none" stroke-width="1" stroke-linecap="butt" stroke-linejoin="miter" stroke-miterlimit="10" stroke-dasharray="" stroke-dashoffset="0" font-family="none" font-weight="none" font-size="none" text-anchor="none" style="mix-blend-mode: normal" data-fill-palette-color="accent"></path></g><g transform="matrix(1,0,0,1,12.942280423447631,14.294353417173792)"><svg viewBox="0 0 38.82684127034286 36.122695282890525" height="36.122695282890525" width="38.82684127034286"><g><svg xmlns="http://www.w3.org/2000/svg" xmlns:xlink="http://www.w3.org/1999/xlink" version="1.1" x="0" y="0" viewBox="3 6.4 91.90053241089916 85.5" enable-background="new 0 0 100 100" xml:space="preserve" height="36.122695282890525" width="38.82684127034286" class="icon-cg-0" data-fill-palette-color="quaternary" id="cg-0"><path d="M64 29.6v10.2c11 0 20.7 9.1 20.7 20.3s-8.9 21.6-20 21.6c-9 0-16.4-5.7-19-12.7H75L39 6.4 3 69h32.1C38 82 50.3 91.9 64.9 91.9c16.8 0 30-14.4 30-31.2C95 43.9 81 29.6 64 29.6zM39 27.2L57.3 59H20.7L39 27.2z" fill="#6432c9" data-fill-palette-color="quaternary"></path></svg></g></svg></g></svg></g></svg></g><g></g></svg></g></svg></g></svg></g><defs></defs></svg><rect width="448" height="360" fill="none" stroke="none" visibility="hidden"></rect></g></svg></g></svg>